<svg xmlns="http://www.w3.org/2000/svg" style="display: none;">
    <symbol id="icon-circle" viewBox="0 0 512 512">
      <path d="M256 512A256 256 0 1 0 256 0a256 256 0 1 0 0 512z"/>
    </symbol>
   <symbol id="icon-square" viewBox="0 0 512 512">
      <path d="M0 0h512v512H0V0z" />
    </symbol>
      <symbol id="icon-line" viewBox="0 0 512 512">
      <path d="M128 64c0-17.7 14.3-32 32-32l160 0c17.7 0 32 14.3 32 32l0 352 96 0 0-160c0-17.7 14.3-32 32-32l128 0c17.7 0 32 14.3 32 32s-14.3 32-32 32l-96 0 0 160c0 17.7-14.3 32-32 32l-160 0c-17.7 0-32-14.3-32-32l0-352-96 0 0 160c0 17.7-14.3 32-32 32L32 288c-17.7 0-32-14.3-32-32s14.3-32 32-32l96 0 0-160z"/>
    </symbol>
</svg>