<svg version="1.1" viewBox="0.0 0.0 500.0 500.0" fill="none" stroke="none" stroke-linecap="square" stroke-miterlimit="10" xmlns:xlink="http://www.w3.org/1999/xlink" xmlns="http://www.w3.org/2000/svg"><clipPath id="p.0"><path d="m0 0l500.0 0l0 500.0l-500.0 0l0 -500.0z" clip-rule="nonzero"/></clipPath><g clip-path="url(#p.0)"><path fill="#000000" fill-opacity="0.0" d="m0 0l500.0 0l0 500.0l-500.0 0z" fill-rule="evenodd"/><path fill="#041f1f" d="m0 0l500.0 0l0 500.0l-500.0 0z" fill-rule="evenodd"/><path stroke="#041f1f" stroke-width="1.0" stroke-linejoin="round" stroke-linecap="butt" d="m0 0l500.0 0l0 500.0l-500.0 0z" fill-rule="evenodd"/><path fill="#000000" fill-opacity="0.0" d="m2.1574802 25.27559l495.68506 0l0 449.4488l-495.68506 0z" fill-rule="evenodd"/><path fill="#45e1ba" d="m304.2237 262.99374q0 32.453125 -8.484375 55.515625q-8.46875 23.046875 -24.328125 37.640625q-15.84375 14.578125 -38.546875 21.421875q-22.6875 6.828125 -54.046875 6.828125l-56.328133 0q-6.015625 0 -10.125 -3.546875q-4.09375 -3.5625 -4.09375 -11.578125l0 -205.62502q0 -8.015625 4.09375 -11.5625q4.109375 -3.5625 10.125 -3.5625l60.515633 0q31.546875 0 53.5 7.390625q21.96875 7.375 37.0 21.875q15.046875 14.484375 22.875 35.8125q7.84375 21.3125 7.84375 49.39064zm-49.578125 1.640625q0 -16.76564 -3.921875 -31.17189q-3.90625 -14.40625 -12.578125 -24.96875q-8.65625 -10.578125 -22.234375 -16.5q-13.578125 -5.921875 -35.640625 -5.921875l-24.234375 0l0 160.40627l24.96875 0q19.6875 0 33.171875 -5.09375q13.5 -5.109375 22.515625 -15.40625q9.03125 -10.296875 13.484375 -25.609375q4.46875 -15.3125 4.46875 -35.734375zm137.08527 113.203125q0 1.828125 -1.1875 3.28125q-1.1875 1.453125 -3.921875 2.375q-2.734375 0.90625 -7.296875 1.453125q-4.546875 0.546875 -11.65625 0.546875q-6.921875 0 -11.578125 -0.546875q-4.640625 -0.546875 -7.375 -1.453125q-2.734375 -0.921875 -3.921875 -2.375q-1.1875 -1.453125 -1.1875 -3.28125l0 -222.75002q0 -1.828125 1.1875 -3.28125q1.1875 -1.46875 4.0 -2.375q2.828125 -0.90625 7.390625 -1.453125q4.5625 -0.546875 11.484375 -0.546875q7.109375 0 11.65625 0.546875q4.5625 0.546875 7.296875 1.453125q2.734375 0.90625 3.921875 2.375q1.1875 1.453125 1.1875 3.28125l0 222.75002z" fill-rule="nonzero"/></g></svg>